<svg width="241" height="259" viewBox="0 0 241 259" fill="none" xmlns="http://www.w3.org/2000/svg">
<path d="M218.14 80.3712C204.423 86.8593 191.393 85.7662 178.606 77.9252C159.672 66.3141 140.603 54.9442 121.628 43.4056C120.213 42.5453 119.3 42.7539 118.067 43.6801C99.3332 57.7477 100.637 87.1397 120.686 99.3814C143.548 113.341 166.514 127.117 189.434 140.973C198.428 146.41 207.463 151.775 216.405 157.303C230.627 166.094 239.034 179.141 240.638 196.325C243.483 226.811 222.225 248.103 199.85 251.514C187.893 253.336 176.974 250.707 166.639 244.357C152.048 235.392 137.337 226.641 122.724 217.715C121.036 216.684 119.789 216.764 118.138 217.768C98.9489 229.44 79.7199 241.04 60.4968 252.651C37.9615 266.263 8.85894 254.291 1.72534 228.077C-5.38217 201.96 10.3068 178.608 33.4273 174.25C43.4742 172.356 52.8548 174.508 61.661 179.865C80.3459 191.23 99.095 202.48 117.754 213.892C119.913 215.213 121.402 215.062 123.343 213.55C141.321 199.538 140.292 170.763 121.034 158.75C100.962 146.23 80.6103 134.202 60.3852 121.951C47.8441 114.354 35.0673 107.147 22.8335 99.0406C6.10659 87.9574 -1.37285 71.4092 0.328513 50.9141C2.33861 26.6996 20.6214 8.15577 43.596 5.66758C55.3951 4.38973 65.853 7.93789 75.8465 14.1102C90.0567 22.8869 104.409 31.4107 118.643 40.1467C120.681 41.3981 122.177 40.836 123.95 39.758C142.491 28.4847 161.055 17.2512 179.62 6.02023C197.696 -4.9154 219.852 -0.628612 232.496 16.2455C246.976 35.5702 243.137 67.3192 218.14 80.3712Z" fill="black"/>
</svg>
