<svg width="500" height="500" viewBox="0 0 500 500" fill="none" xmlns="http://www.w3.org/2000/svg">
<g clip-path="url(#clip0_2042_30)">
<path d="M63.0449 84.0215C53.5056 103.508 48.7354 125.544 48.7354 150.129C48.7354 178.022 53.0325 202.019 61.6279 222.119C70.6326 241.809 82.9123 258.627 98.4658 272.573C114.019 286.11 132.234 296.981 153.108 305.185C174.392 313.388 197.518 319.542 222.485 323.644C244.588 327.335 263.826 333.078 280.198 340.872C296.98 348.666 310.896 357.484 321.947 367.329C332.999 376.764 341.39 387.019 347.12 398.095C352.85 409.17 355.715 420.04 355.715 430.705C355.715 440.14 353.464 448.959 348.962 457.163C344.869 465.367 338.319 472.75 329.314 479.313C320.31 485.877 308.849 491.005 294.933 494.696C285.35 497.238 274.505 498.905 262.399 499.696C258.292 499.897 254.158 500 250 500C244.524 500 239.089 499.823 233.701 499.477C227.203 498.543 221.828 496.745 217.574 494.081C211.025 489.979 205.908 484.441 202.225 477.468C198.95 470.495 196.495 462.291 194.857 452.856C193.63 443.012 191.993 432.551 189.946 421.476C188.309 410.4 185.853 398.915 182.578 387.02C179.713 375.124 175.006 363.228 168.457 351.332C160.271 336.975 150.448 326.309 138.987 319.336C127.527 312.363 115.861 308.876 103.991 308.876C94.168 308.876 84.9586 311.132 76.3633 315.645C67.7678 319.747 60.1954 325.489 53.6465 332.873C47.507 340.257 42.5958 348.871 38.9121 358.716C36.9503 364.614 35.5755 370.807 34.7891 377.294C12.6878 340.009 0 296.486 0 250C0 186.302 23.8231 128.168 63.0449 84.0215ZM250 0C256.961 0 263.856 0.283787 270.673 0.841797C277.437 2.91062 282.659 6.52612 286.338 11.6875C292.887 20.3016 297.594 31.1717 300.459 44.2979C303.324 57.4242 305.371 71.5766 306.599 86.7539C308.236 101.521 311.305 115.468 315.808 128.594C320.31 141.72 327.473 152.591 337.296 161.205C347.529 169.819 362.469 174.126 382.115 174.126C390.711 174.126 398.897 172.28 406.674 168.588C414.86 164.896 421.819 159.974 427.549 153.821C433.688 147.258 438.395 139.669 441.67 131.055C445.353 122.441 447.195 113.212 447.195 103.367C447.195 100.886 447.124 98.4469 446.988 96.0508C480.201 138.489 500 191.932 500 250C500 306.836 481.032 359.24 449.084 401.232C459.693 380.27 465 359.124 465 337.795C465 315.234 459.884 294.724 449.651 276.266C439.828 257.397 426.321 240.989 409.13 227.042C392.348 213.095 372.906 201.609 350.804 192.585C328.701 183.561 305.575 176.997 281.426 172.896C263.826 170.024 247.863 165.101 233.537 158.128C219.211 150.744 206.932 142.131 196.699 132.286C186.876 122.441 179.303 111.776 173.982 100.29C168.662 88.3944 166.001 76.2932 166.001 63.9873C166.001 45.1184 173.779 30.1466 189.332 19.0713C202.724 9.43563 220.293 3.12047 242.039 0.125C244.683 0.0423052 247.336 0 250 0Z" fill="white"/>
<circle cx="250" cy="250" r="25" fill="white"/>
</g>
<defs>
<clipPath id="clip0_2042_30">
<rect width="500" height="500" fill="white"/>
</clipPath>
</defs>
</svg>
